<svg id="Layer_1" data-name="Layer 1" xmlns="http://www.w3.org/2000/svg" xmlns:xlink="http://www.w3.org/1999/xlink" viewBox="0 0 1280 769"><defs><style>.cls-1{fill:#272626;}.cls-2{fill:url(#linear-gradient);}.cls-3{fill:url(#linear-gradient-2);}.cls-4{fill:url(#linear-gradient-3);}.cls-5{fill:url(#linear-gradient-4);}.cls-6{fill:url(#linear-gradient-5);}</style><linearGradient id="linear-gradient" x1="569.3" y1="398.02" x2="712.06" y2="255.26" gradientUnits="userSpaceOnUse"><stop offset="0" stop-color="#f78f20"/><stop offset="1" stop-color="#eb1289"/></linearGradient><linearGradient id="linear-gradient-2" x1="525.91" y1="354.62" x2="668.67" y2="211.86" xlink:href="#linear-gradient"/><linearGradient id="linear-gradient-3" x1="553.41" y1="382.13" x2="696.17" y2="239.37" xlink:href="#linear-gradient"/><linearGradient id="linear-gradient-4" x1="617.61" y1="446.33" x2="760.37" y2="303.57" xlink:href="#linear-gradient"/><linearGradient id="linear-gradient-5" x1="572.15" y1="400.87" x2="714.91" y2="258.11" xlink:href="#linear-gradient"/></defs><path class="cls-1" d="M353,528.14a37.56,37.56,0,0,1-14-2.37,20.8,20.8,0,0,1-9.22-6.8,17,17,0,0,1-3.31-10.48,15.93,15.93,0,0,1,3.17-10.06,19.49,19.49,0,0,1,9.08-6.24A42.09,42.09,0,0,1,353,490.05a42.59,42.59,0,0,1,14.3,2.14,19.64,19.64,0,0,1,9.22,6.29,15.86,15.86,0,0,1,3.22,10A16.83,16.83,0,0,1,376.41,519a21.14,21.14,0,0,1-9.31,6.8A38,38,0,0,1,353,528.14Zm0-31.66a36.64,36.64,0,0,1-12.94-2.05,18.34,18.34,0,0,1-8.34-5.92,14.89,14.89,0,0,1-2.93-9.27,15.64,15.64,0,0,1,3-9.68,19.65,19.65,0,0,1,8.53-6.24,37.18,37.18,0,0,1,25.42,0,20,20,0,0,1,8.57,6.24,15.43,15.43,0,0,1,3.08,9.68,14.84,14.84,0,0,1-2.94,9.27,18.25,18.25,0,0,1-8.38,5.92A37.36,37.36,0,0,1,353,496.48Zm0,22.26q6.71,0,10.62-2.89a9.11,9.11,0,0,0,3.91-7.73,8.88,8.88,0,0,0-3.91-7.64q-3.91-2.79-10.62-2.79t-10.57,2.79a8.91,8.91,0,0,0-3.86,7.64,9.14,9.14,0,0,0,3.86,7.73Q346.33,518.73,353,518.74Zm0-29.81c3.92,0,7-.8,9.13-2.42a7.89,7.89,0,0,0,3.26-6.71A8,8,0,0,0,362,473q-3.39-2.47-9-2.47c-3.72,0-6.69.82-8.89,2.47a8,8,0,0,0-3.31,6.84,7.91,7.91,0,0,0,3.22,6.71C346.19,488.13,349.18,488.93,353,488.93Z"/><path class="cls-1" d="M414.88,528.14a25.44,25.44,0,0,1-14-3.91,26.78,26.78,0,0,1-9.73-11.41q-3.6-7.5-3.59-18.21t3.59-18.21A26.84,26.84,0,0,1,400.91,465a26.75,26.75,0,0,1,27.85,0,26.84,26.84,0,0,1,9.73,11.41q3.58,7.5,3.59,18.21t-3.59,18.21a26.78,26.78,0,0,1-9.73,11.41A25.3,25.3,0,0,1,414.88,528.14Zm0-10.52a12.79,12.79,0,0,0,7.82-2.47,16,16,0,0,0,5.27-7.59,44.82,44.82,0,0,0,0-25.89,16,16,0,0,0-5.27-7.59,12.79,12.79,0,0,0-7.82-2.47,13,13,0,0,0-7.87,2.47,16.15,16.15,0,0,0-5.36,7.59,43.94,43.94,0,0,0,0,25.89,16.15,16.15,0,0,0,5.36,7.59A13,13,0,0,0,414.88,517.62Z"/><path class="cls-1" d="M441.43,536.53l30.73-87.74h10.53L452,536.53Z"/><path class="cls-1" d="M482.13,527.21v-8.1l26-24.59a36.65,36.65,0,0,0,4.75-5.4,15.24,15.24,0,0,0,2.15-4.33,14.25,14.25,0,0,0,.56-3.78,8.35,8.35,0,0,0-3.12-6.93c-2.09-1.65-5.14-2.47-9.18-2.47a21.27,21.27,0,0,0-8.52,1.67,17.84,17.84,0,0,0-6.66,5l-8.48-6.42a25.18,25.18,0,0,1,10.29-8,35.78,35.78,0,0,1,14.49-2.84,30.46,30.46,0,0,1,12.29,2.28,18.68,18.68,0,0,1,8.11,6.48,17,17,0,0,1,2.88,9.87,24.82,24.82,0,0,1-.83,6.38,22.76,22.76,0,0,1-3.17,6.61,48.64,48.64,0,0,1-6.8,7.78l-22.36,21L492,517h38.19v10.24Z"/><path class="cls-1" d="M564,528.14a25.44,25.44,0,0,1-14-3.91,26.8,26.8,0,0,1-9.74-11.41q-3.59-7.5-3.58-18.21t3.58-18.21A26.86,26.86,0,0,1,550,465a26.75,26.75,0,0,1,27.85,0,26.84,26.84,0,0,1,9.73,11.41q3.58,7.5,3.59,18.21t-3.59,18.21a26.78,26.78,0,0,1-9.73,11.41A25.3,25.3,0,0,1,564,528.14Zm0-10.52a12.79,12.79,0,0,0,7.82-2.47,16,16,0,0,0,5.26-7.59,44.82,44.82,0,0,0,0-25.89,16,16,0,0,0-5.26-7.59,12.79,12.79,0,0,0-7.82-2.47,13,13,0,0,0-7.87,2.47,16.15,16.15,0,0,0-5.36,7.59,43.94,43.94,0,0,0,0,25.89,16.15,16.15,0,0,0,5.36,7.59A13,13,0,0,0,564,517.62Z"/><path class="cls-1" d="M629.66,527.21V462h26.73q13.05,0,20.45,6.2t7.4,17a20.86,20.86,0,0,1-12.9,20.21,36,36,0,0,1-14.85,2.79h-20l5.31-5.4v24.4Zm12.11-23.1-5.31-5.86h19.47q8,0,12.06-3.45t4-9.59q0-6.15-4-9.55t-12.06-3.4H636.46l5.31-6Zm30.55,23.1-16.49-23.66h12.95l16.58,23.66Z"/><path class="cls-1" d="M717.68,527.87a25.15,25.15,0,0,1-11.18-2.38,17.28,17.28,0,0,1-7.59-7.27q-2.74-4.87-2.75-12.34v-28.4H707.9v26.91q0,6.62,3.07,9.92t8.57,3.31a14.7,14.7,0,0,0,7.17-1.68,11.2,11.2,0,0,0,4.75-5,18.35,18.35,0,0,0,1.68-8.29V477.48h11.64v49.73H733.7v-13.5l1.95,4.19a17.45,17.45,0,0,1-7.35,7.36A22,22,0,0,1,717.68,527.87Z"/><path class="cls-1" d="M760.15,527.21V458.1H771.7v69.11Z"/><path class="cls-1" d="M810.45,527.87A30.38,30.38,0,0,1,796,524.56a24.11,24.11,0,0,1-9.59-9,25.27,25.27,0,0,1-3.4-13.18,25.85,25.85,0,0,1,3.31-13.18,24,24,0,0,1,9.13-9,26.4,26.4,0,0,1,13.27-3.31A25.72,25.72,0,0,1,821.62,480a23.29,23.29,0,0,1,9,9,27.43,27.43,0,0,1,3.26,13.69c0,.43,0,1-.05,1.63s-.08,1.22-.14,1.72H792.19v-7.73h35.3l-4.65,2.42a14.68,14.68,0,0,0-1.73-7.5,13,13,0,0,0-5-5.12,14.74,14.74,0,0,0-7.45-1.82,15.31,15.31,0,0,0-7.5,1.82,12.35,12.35,0,0,0-5.08,5.17,16.32,16.32,0,0,0-1.77,7.73v1.86a15.44,15.44,0,0,0,2,7.92,13.63,13.63,0,0,0,5.73,5.36,18.76,18.76,0,0,0,8.66,1.91,19.45,19.45,0,0,0,7.54-1.4,17.63,17.63,0,0,0,6-4.1l6.34,7.26a22.32,22.32,0,0,1-8.53,6A30.84,30.84,0,0,1,810.45,527.87Z"/><path class="cls-1" d="M862.51,527.21,891.85,462h11.93l29.43,65.2H920.45L895.3,468.44h4.84L874.9,527.21ZM876,512.12l3.35-9.5h35.12l3.26,9.5Z"/><path class="cls-1" d="M941.4,527.21V462h12.11v65.2Z"/><path class="cls-2" d="M740,310.89l-35.8-62a32.46,32.46,0,0,0-13-12.55,24.17,24.17,0,0,0-3.43-1.58,32.49,32.49,0,0,0-12-2.3H604.19a32.52,32.52,0,0,0-12,2.3,23.44,23.44,0,0,0-3.41,1.58l-.09.09a32.38,32.38,0,0,0-13,12.46l-35.78,62a32.51,32.51,0,0,0-4.35,17.56v.05a28.73,28.73,0,0,0,.33,3.71,32.5,32.5,0,0,0,4,11.54l35.78,62a32.39,32.39,0,0,0,8,9.24,31.86,31.86,0,0,0,3,2.11,32.83,32.83,0,0,0,17.51,5.08h71.59a32.86,32.86,0,0,0,17.49-5.06,29.41,29.41,0,0,0,3-2.15,31.82,31.82,0,0,0,8-9.22l35.8-62a32.5,32.5,0,0,0,4-11.54,25.92,25.92,0,0,0,.33-3.64A32.57,32.57,0,0,0,740,310.89ZM731.87,339l-35.81,62a22.13,22.13,0,0,1-2.55,3.59,23.74,23.74,0,0,1-8.18,6.05,23.51,23.51,0,0,1-9.55,2.06H604.19a23.55,23.55,0,0,1-17.7-8.11,21.53,21.53,0,0,1-2.55-3.59l-35.81-62a22,22,0,0,1-1.8-4,22.63,22.63,0,0,1-1.18-10.11,23.25,23.25,0,0,1,3-9.29l35.81-62a23.31,23.31,0,0,1,15.88-11.28,22.56,22.56,0,0,1,4.37-.42h71.59a22.71,22.71,0,0,1,4.37.42h0a23.08,23.08,0,0,1,9.33,4,22.76,22.76,0,0,1,6.55,7.24l35.81,62a23.23,23.23,0,0,1,3,9.29A22.92,22.92,0,0,1,733.69,335,25.34,25.34,0,0,1,731.87,339Z"/><path class="cls-3" d="M695.37,240.53l-5.86,5.86-39.3,39.17-1.73,1.72a12,12,0,0,1-17,0l-1.72-1.72-39.31-39.19-5.86-5.84,4.09-4.09.09-.09a23.44,23.44,0,0,1,3.41-1.58l7.61,7.58,38.36,38.24a2.58,2.58,0,0,0,3.64,0l38.33-38.24h0l7.58-7.58a24.17,24.17,0,0,1,3.43,1.58Z"/><path class="cls-4" d="M609.58,354.69l-.59,2.24-14.35,53.75-2.12,8-5.84-1.56a31.86,31.86,0,0,1-3-2.11l2.77-10.37,13.94-52.38a2.59,2.59,0,0,0-1.82-3.14L546.33,335l-10.4-2.81a28.73,28.73,0,0,1-.33-3.71v-.05l1.54-5.69,8,2.15,53.58,14.44,2.34.64A12.08,12.08,0,0,1,609.58,354.69Z"/><path class="cls-5" d="M744.39,328.57a25.92,25.92,0,0,1-.33,3.64L733.69,335l-52.33,14.11a2.58,2.58,0,0,0-1.8,3.14l14,52.38L696.27,415a29.41,29.41,0,0,1-3,2.15l-5.81,1.54-2.13-8L671,356.93l-.59-2.24A12,12,0,0,1,678.9,340l2.34-.64,53.6-14.44,8-2.15Z"/><path class="cls-6" d="M681.24,339.35a15.11,15.11,0,0,0-1.49-3.57L652.5,288.56a14.52,14.52,0,0,0-2.29-3,14.44,14.44,0,0,0-22.72,3l-27.27,47.22a15.11,15.11,0,0,0-1.49,3.57A14.45,14.45,0,0,0,609,356.93a14.1,14.1,0,0,0,3.73.5h54.53a14.46,14.46,0,0,0,14-18.08ZM612.72,348a5,5,0,0,1-4.3-7.47l27.25-47.23a5,5,0,0,1,8.63,0l27.27,47.23a5,5,0,0,1-4.32,7.47Z"/></svg>